<?xml version="1.0" standalone="no"?>
<!DOCTYPE svg PUBLIC "-//W3C//DTD SVG 20010904//EN"
 "http://www.w3.org/TR/2001/REC-SVG-20010904/DTD/svg10.dtd">
<svg version="1.0" xmlns="http://www.w3.org/2000/svg"
 width="600.000000pt" height="600.000000pt" viewBox="0 0 600.000000 600.000000"
 preserveAspectRatio="xMidYMid meet">
<metadata>
Created by potrace 1.14, written by Peter Selinger 2001-2017
</metadata>
<g transform="translate(0.000000,600.000000) scale(0.100000,-0.100000)"
fill="#000000" stroke="none">
<path d="M1826 3958 c-15 -51 -31 -106 -35 -123 -5 -16 -128 -449 -275 -961
-146 -512 -266 -935 -266 -940 0 -5 56 -10 125 -10 105 0 126 2 129 15 13 43
58 213 61 229 1 9 8 36 14 60 l12 42 268 0 268 0 15 -62 c49 -194 71 -274 75
-278 3 -3 61 -5 129 -6 109 0 125 2 121 15 -57 213 -604 2111 -608 2111 -3 0
-18 -42 -33 -92z m45 -640 c5 -24 10 -52 12 -63 4 -19 11 -58 21 -120 6 -31 9
-46 101 -400 32 -121 58 -227 59 -235 1 -12 -30 -15 -206 -15 -115 -1 -208 1
-208 3 0 3 14 57 31 121 17 64 48 184 70 266 42 159 99 431 99 473 0 36 11 20
21 -30z"/>
<path d="M399 4022 l-46 -3 0 -1047 0 -1048 121 0 121 0 5 311 5 310 60 11
c196 35 348 130 456 284 101 145 144 369 114 587 -51 355 -292 563 -684 589
-47 3 -90 6 -96 7 -5 1 -31 1 -56 -1z m376 -307 c147 -71 216 -216 210 -443
-3 -126 -11 -162 -50 -247 -54 -118 -174 -211 -292 -229 l-43 -6 0 489 0 489
63 -14 c34 -8 85 -25 112 -39z"/>
<path d="M2669 4019 c-1 -2 -2 -473 -3 -1046 -1 -696 2 -1043 9 -1044 5 -1 61
-2 123 -3 l112 -1 0 332 c0 367 -6 335 65 347 17 3 41 8 55 11 24 5 29 -4 129
-238 57 -133 114 -264 126 -292 12 -27 32 -75 45 -106 l24 -55 138 0 c88 1
137 5 134 11 -2 6 -83 183 -181 393 l-177 384 28 21 c114 87 203 225 240 372
23 93 23 293 0 389 -64 269 -254 444 -546 506 -53 11 -319 27 -321 19z m416
-305 c63 -31 133 -101 164 -162 65 -128 66 -359 1 -495 -42 -88 -165 -185
-256 -201 -16 -3 -41 -8 -56 -12 l-28 -6 0 465 0 465 60 -13 c33 -7 85 -25
115 -41z"/>
<path d="M3690 3990 c-4 -3 -7 -54 -7 -115 l2 -110 162 1 c156 0 161 0 165
-20 2 -12 3 -426 3 -922 l-1 -901 120 1 121 1 5 921 5 920 158 0 c88 -1 161 3
164 7 4 7 6 121 4 202 -1 20 -7 20 -447 20 -245 0 -450 -2 -454 -5z"/>
<path d="M4695 3970 c3 -14 40 -131 82 -260 41 -129 88 -278 105 -330 16 -52
36 -113 43 -135 8 -22 48 -148 90 -280 42 -132 84 -260 92 -285 13 -37 15
-109 16 -400 l0 -356 121 0 121 1 5 360 5 360 73 225 c41 124 112 344 159 490
46 146 108 339 138 430 29 91 56 174 59 185 6 20 2 20 -123 20 -71 0 -132 -2
-134 -5 -3 -3 -40 -124 -82 -270 -42 -146 -90 -310 -106 -365 -16 -55 -46
-156 -65 -225 -20 -69 -39 -131 -43 -138 -4 -7 -30 69 -60 170 -28 101 -74
260 -101 353 -44 155 -60 210 -120 416 l-20 65 -130 0 -131 -1 6 -25z"/>
</g>
</svg>
