<svg version="1" xmlns="http://www.w3.org/2000/svg" width="682.667" height="682.667" viewBox="0 0 512.000000 512.000000"><path d="M161.2 195.3c-3.5 12.2-6.5 22.9-6.6 23.7-.5 1.8-6.9 24.8-9.6 34-1.1 3.6-3.5 12.1-5.4 19-3.2 11.5-15 53.2-21 74.5-1.4 4.9-3 10.5-3.5 12.2l-1 3.3h23.5l4-15.2 4-15.3h21.8c18.8 0 21.9.2 22.6 1.5.5.9 2 6.3 3.5 12.1 1.4 5.7 3.1 11.9 3.6 13.6l1.1 3.3h11.4c6.3 0 11.4-.2 11.4-.5 0-.6-9.4-34.1-22.2-79-5.5-19.3-10.1-35.9-10.4-37-.2-1.1-2.2-8.3-4.4-16-2.3-7.7-4.3-14.7-4.5-15.5-.2-.8-2.7-9.6-5.5-19.5s-5.2-18.5-5.4-19.2c-.1-.7-.4-1.4-.7-1.7-.2-.3-3.3 9.5-6.7 21.7zm8.4 56.4c1.6 7.3 4.3 18 11.5 46.2 1.6 6.2 2.9 11.7 2.9 12.2s-7.5.9-16.6.9c-15.8 0-16.5-.1-15.9-1.9.3-1.1.8-2.9 1-4 .3-1.2.7-3.1 1-4.2.2-1.2.9-3.6 1.5-5.4.6-1.8 1.2-4.1 1.5-5.1.2-1 1.8-7.3 3.5-13.8 1.8-6.6 3.4-12.9 3.6-14 1.3-7.1 3.8-18.6 4-18.6.1 0 1 3.5 2 7.7zM33 176.6c-.1 1.6-.1 181.8-.1 183.6.1 1.6 1.3 1.8 10.9 1.8h10.7l-.2-27c0-14.8.2-27.2.6-27.4.4-.3 2-.7 3.5-1 20.2-3.7 36.5-14.9 44.5-30.8 2.3-4.6 4.9-11.7 5.7-15.8 2-9.4 2.1-26.3.1-35.7-5-23.2-20.6-39.2-44.6-45.4-8.1-2.2-31.1-3.8-31.1-2.3zM63.4 201c10.6 3.6 17.3 10.4 21.7 22 2.7 7.4 3.4 24 1.3 32.9-3.7 15.5-14.3 26.3-28 28.5l-4.1.7v-43c-.1-49-1-44.6 9.1-41.1zM234.7 176.7c-.2.4-.4 42.3-.4 93.1V362H256l.2-29.7.3-29.6 5.2-1.2c2.8-.7 5.6-.9 6.1-.6.4.3 1.4 2.2 2.2 4.1.7 1.9 2.5 6.2 4 9.5s6.6 15.3 11.5 26.7l8.8 20.8h24.6l-4.5-9.8c-2.5-5.3-5.5-11.7-6.6-14.2-1.1-2.5-3.1-6.8-4.3-9.5-1.3-2.8-3.5-7.5-4.8-10.5-1.3-3-3.7-8.2-5.2-11.5-7.6-16.4-7-14.6-4.9-15.8 4.7-2.6 17.4-17.5 17.4-20.5 0-.5.6-2.2 1.4-3.8 4.1-8.2 5.7-28.7 3.4-41.7-1.3-6.8-5.3-17.1-9.1-22.7-8.5-12.7-25.6-22.4-43.8-24.9-8.6-1.1-22.6-1.4-23.2-.4zm30.1 24.2c15.3 4.7 23.8 17 24.6 35.7 1 23.1-8.6 37.9-27.5 42.9-2.6.7-5 1-5.3.7-.3-.3-.6-18.7-.6-40.9 0-34 .2-40.3 1.4-40.3.8 0 4.1.8 7.4 1.9zM321.9 179.7c-.3 5.5-.1 16.4.4 17.6.4 1 3.4 1.3 14 1.2 11.6-.1 13.6.1 13.9 1.4.2.9.4 37.7.3 81.7v80.1l10.5-.1 10.5-.1.5-81.5.5-81.5h28l.2-10.3.2-10.2h-39.5c-36.8 0-39.4.1-39.5 1.7zM403 178.7c0 .4 12 39.3 13.4 43.3.2.8 3 9.6 6.1 19.5 3.1 9.9 7.1 22.7 9 28.5 10.4 32.8 9.5 27.9 9.4 53.5v30.7l.1 7.8h10.5c7.7 0 10.5-.3 10.6-1.3 0-.6.2-14.9.3-31.7l.2-30.5 6.8-21c3.7-11.6 8.7-27.3 11.1-35 5-16.3 15.8-50.5 18.5-58.7l1.8-5.6h-11.9l-11.9.1-.6 2.6c-.6 2.3-7.2 25.6-18.6 65.6-2.2 7.7-4.5 15.8-5.1 18-1 3.8-1.2 3.5-7.9-20-3.7-13.2-7.2-25.6-7.7-27.5-.5-1.9-2.5-9.1-4.5-16s-4.3-14.8-5.1-17.6l-1.5-5.2-11.5.1c-6.3 0-11.5.2-11.5.4z"/></svg>