<?xml version="1.0" standalone="no"?>
<!DOCTYPE svg PUBLIC "-//W3C//DTD SVG 20010904//EN"
 "http://www.w3.org/TR/2001/REC-SVG-20010904/DTD/svg10.dtd">
<svg version="1.0" xmlns="http://www.w3.org/2000/svg"
 width="600.000000pt" height="600.000000pt" viewBox="0 0 600.000000 600.000000"
 preserveAspectRatio="xMidYMid meet">
<metadata>
Created by potrace 1.11, written by Peter Selinger 2001-2013
</metadata>
<g transform="translate(0.000000,600.000000) scale(0.100000,-0.100000)"
fill="#000000" stroke="none">
<path d="M962 5288 c-6 -40 -14 -84 -17 -98 -2 -13 -7 -40 -10 -60 -3 -20 -8
-47 -10 -60 -3 -14 -8 -38 -10 -55 -3 -16 -10 -55 -16 -85 -6 -30 -13 -68 -15
-85 -21 -133 -38 -207 -48 -210 -6 -2 -27 -6 -46 -9 -19 -3 -91 -14 -160 -25
-69 -12 -143 -23 -165 -26 -22 -3 -62 -10 -90 -15 -55 -10 -95 -16 -170 -26
-101 -13 -76 -24 115 -49 14 -2 70 -11 125 -19 112 -17 122 -19 287 -42 l117
-17 11 -68 c7 -38 13 -79 14 -91 2 -13 6 -36 9 -53 4 -16 9 -50 12 -75 3 -25
8 -52 10 -60 2 -8 6 -33 10 -55 3 -22 10 -69 16 -105 6 -36 12 -76 14 -90 10
-78 18 -120 22 -117 3 4 20 95 28 160 2 16 6 40 9 55 3 15 8 47 11 72 3 25 10
70 15 100 5 30 12 75 15 100 3 25 8 56 10 70 2 14 9 54 14 89 6 35 12 65 13
66 2 2 30 6 63 9 33 4 71 9 85 11 14 2 45 7 70 10 49 6 110 14 150 20 14 3 45
7 70 10 25 3 56 7 69 10 13 2 48 7 79 11 30 3 63 8 71 9 9 2 27 4 41 5 23 1
23 2 5 9 -11 5 -39 11 -62 14 -22 4 -52 8 -65 11 -12 3 -39 8 -58 11 -19 2
-46 7 -60 10 -14 3 -74 14 -135 25 -60 10 -135 24 -165 29 -92 18 -104 19
-128 20 -27 1 -37 25 -46 106 -3 33 -8 74 -11 90 -11 74 -57 405 -62 450 -10
88 -18 92 -31 13z"/>
<path d="M3337 5144 c-1 -1 -42 -4 -92 -8 -49 -3 -101 -8 -115 -10 -14 -3 -42
-7 -62 -10 -21 -3 -57 -10 -80 -15 -24 -6 -54 -12 -68 -14 -160 -30 -442 -145
-629 -257 -185 -112 -186 -113 -281 -329 l-45 -105 -70 -28 c-39 -16 -105 -45
-148 -65 -74 -35 -80 -40 -131 -117 -127 -192 -232 -411 -276 -576 -6 -23 -14
-48 -17 -57 -6 -17 6 -16 87 2 14 3 68 12 120 20 52 9 106 18 120 20 14 2 47
7 74 10 l48 7 -6 -29 c-4 -15 -8 -48 -10 -73 -2 -25 -7 -74 -11 -110 -8 -86
-14 -179 -14 -267 l-1 -73 -243 0 -244 0 3 -131 c2 -125 8 -199 20 -279 20
-130 67 -317 82 -332 5 -5 24 -10 43 -13 19 -2 59 -8 89 -14 90 -17 111 -20
203 -32 68 -9 90 -16 98 -30 5 -11 8 -19 6 -19 -3 0 0 -19 4 -43 5 -23 11 -58
15 -78 6 -39 52 -229 78 -323 9 -32 15 -60 14 -62 -5 -4 -230 111 -302 154
-37 23 -66 36 -63 29 10 -26 100 -162 160 -242 71 -93 295 -321 382 -387 92
-70 246 -170 252 -165 3 3 -10 27 -28 53 -37 54 -171 315 -165 321 2 3 55 -10
118 -27 97 -27 377 -90 400 -90 4 0 7 -3 6 -8 -2 -7 21 -191 28 -227 3 -11 7
-36 10 -55 3 -19 11 -62 17 -94 l12 -59 79 -23 c81 -24 203 -52 265 -60 18 -2
36 -6 40 -8 12 -8 195 -19 306 -19 130 -1 312 13 365 28 8 3 33 7 55 10 22 4
48 8 57 11 9 3 26 7 37 9 12 3 31 7 42 10 72 15 363 123 394 145 6 4 44 25 85
46 106 54 259 159 370 252 279 235 503 550 631 889 37 99 92 292 103 363 3 19
8 44 10 55 2 12 7 48 11 80 4 33 9 71 11 85 6 36 5 338 -1 385 -8 63 -16 127
-21 165 -8 52 -53 236 -76 310 -45 139 -171 411 -214 461 -8 8 -14 18 -14 22
0 10 -90 137 -154 217 -73 91 -227 245 -321 322 -326 263 -754 436 -1173 474
-62 5 -271 11 -275 8z m-702 -726 c-6 -40 -16 -131 -21 -198 -2 -36 -6 -83 -9
-105 -2 -22 -7 -89 -10 -150 -9 -164 -2 -152 -87 -155 -40 -1 -93 -3 -118 -5
-86 -6 -205 -16 -235 -20 -16 -2 -66 -7 -110 -10 -44 -4 -88 -9 -97 -11 -12
-2 -18 3 -18 15 0 30 68 294 105 409 l35 109 53 16 c142 42 264 78 282 82 68
15 212 43 222 44 7 1 10 -9 8 -21z m1891 -191 c1 -7 5 -38 8 -71 4 -32 9 -68
11 -80 2 -11 6 -39 9 -62 2 -22 7 -56 10 -75 6 -34 10 -63 21 -154 19 -144 33
-227 41 -235 5 -4 25 -10 44 -13 19 -3 87 -14 150 -26 132 -23 136 -24 290
-51 63 -12 131 -23 150 -26 65 -11 56 -21 -24 -28 -32 -4 -61 -8 -65 -10 -3
-2 -33 -6 -66 -10 -33 -3 -71 -8 -85 -11 -14 -2 -45 -6 -70 -9 -126 -14 -325
-47 -332 -54 -3 -4 -9 -29 -13 -57 -9 -76 -15 -115 -25 -175 -6 -30 -12 -72
-15 -94 -8 -66 -15 -120 -20 -146 -10 -52 -27 -173 -28 -187 0 -7 -4 -13 -9
-13 -4 0 -8 6 -9 13 0 6 -2 23 -5 37 -17 105 -27 168 -29 185 -2 11 -8 47 -14
80 -6 33 -15 92 -21 130 -5 39 -12 81 -15 95 -2 13 -7 42 -11 65 -3 22 -7 45
-8 52 -3 18 -14 26 -39 30 -12 2 -67 10 -122 18 -55 8 -118 18 -139 20 -22 3
-51 7 -65 10 -78 13 -176 27 -283 42 -44 5 -66 19 -35 20 12 1 39 5 147 23 71
12 118 20 155 26 17 2 41 6 55 9 14 2 43 7 65 10 22 3 54 8 70 11 17 3 41 7
55 9 108 14 122 18 130 39 5 11 20 89 34 171 14 83 28 160 30 171 2 12 7 39
11 60 6 41 12 76 19 109 2 11 10 55 17 97 12 70 20 89 25 55z m-1965 -1309 c0
-7 2 -121 5 -253 2 -132 5 -266 8 -297 4 -59 2 -61 -39 -60 -46 0 -232 13
-255 16 -14 2 -67 7 -118 11 -51 3 -101 8 -110 10 -9 1 -48 6 -87 10 -38 3
-70 7 -71 8 -1 1 -5 31 -9 67 -4 36 -8 77 -10 92 -12 99 -24 375 -17 396 6 18
702 18 703 0z m790 5 c1 -11 1 -380 0 -525 l-1 -118 -282 6 c-246 5 -338 9
-358 13 -6 1 -7 20 -14 364 l-5 267 329 0 c182 0 330 -3 331 -7z m743 -828
c-2 -67 -9 -191 -19 -300 -3 -27 -7 -77 -10 -110 -19 -228 -15 -221 -107 -230
-40 -4 -86 -8 -103 -10 -55 -7 -194 -17 -285 -20 l-90 -3 0 364 0 364 88 1
c154 2 436 9 438 12 2 1 22 2 46 2 l43 -1 -1 -69z"/>
<path d="M5442 1370 c-6 -41 -14 -86 -17 -100 -3 -14 -7 -38 -10 -55 -10 -59
-14 -81 -24 -134 -6 -30 -12 -56 -14 -57 -3 -3 -253 -44 -360 -60 -73 -10 -61
-14 118 -40 17 -2 41 -6 55 -9 14 -2 45 -7 70 -10 25 -3 54 -7 65 -9 11 -3 28
-5 37 -5 18 -1 24 -14 33 -76 3 -22 8 -51 10 -65 10 -56 37 -236 38 -247 0 -7
3 -13 7 -13 4 0 15 51 24 113 10 61 19 123 21 137 2 14 7 45 10 70 10 76 11
77 71 85 31 4 66 8 78 10 96 16 234 34 260 35 11 0 17 2 15 4 -6 6 -37 13
-259 52 -80 15 -147 28 -149 30 -3 3 -6 12 -7 22 -1 9 -12 89 -24 177 -30 227
-34 238 -48 145z"/>
</g>
</svg>
